<?xml version="1.0" standalone="no"?>
<!DOCTYPE svg PUBLIC "-//W3C//DTD SVG 20010904//EN"
 "http://www.w3.org/TR/2001/REC-SVG-20010904/DTD/svg10.dtd">
<svg version="1.0" xmlns="http://www.w3.org/2000/svg"
 width="512.000000pt" height="512.000000pt" viewBox="0 0 512.000000 512.000000"
 preserveAspectRatio="xMidYMid meet">

<g transform="translate(0.000000,512.000000) scale(0.100000,-0.100000)"
fill="#000000" stroke="none">
<path d="M2385 5114 c-16 -2 -73 -9 -125 -15 -297 -34 -635 -143 -905 -292
-224 -124 -378 -240 -571 -432 -231 -229 -360 -407 -494 -680 -130 -265 -197
-479 -241 -766 -31 -205 -31 -533 0 -738 26 -170 75 -367 126 -506 85 -233
247 -521 402 -718 72 -92 317 -338 408 -409 378 -296 793 -472 1275 -540 144
-20 535 -17 685 6 338 51 667 168 945 336 198 119 258 168 285 232 48 116 -20
257 -139 286 -22 6 -81 20 -130 31 -222 51 -397 185 -489 374 -60 123 -72 182
-71 357 0 139 3 164 27 243 88 285 285 489 537 554 103 26 261 22 394 -11 146
-36 223 -42 316 -22 122 26 211 75 300 164 174 174 213 359 137 644 -170 635
-566 1172 -1122 1523 -117 74 -341 183 -480 233 -132 48 -360 105 -505 127
-100 15 -498 29 -565 19z m544 -179 c902 -132 1642 -753 1929 -1616 72 -216
89 -311 74 -402 -35 -200 -188 -343 -391 -363 -44 -5 -86 1 -191 27 -122 30
-149 33 -280 32 -115 0 -161 -4 -221 -21 -104 -28 -222 -89 -310 -161 -370
-298 -472 -897 -222 -1300 55 -89 176 -212 256 -259 92 -55 209 -101 322 -127
59 -13 113 -29 121 -36 19 -16 18 -54 -3 -75 -41 -41 -239 -161 -378 -229
-315 -155 -615 -229 -970 -242 -546 -19 -1071 145 -1515 474 -761 563 -1120
1545 -903 2468 141 599 508 1121 1033 1468 141 93 375 206 540 261 193 64 327
91 580 120 74 9 430 -4 529 -19z"/>
<path d="M3298 4185 c-179 -45 -335 -191 -389 -364 -28 -91 -28 -231 0 -322
55 -175 209 -318 394 -365 81 -21 219 -14 302 15 215 76 359 281 359 511 0
234 -144 435 -365 511 -82 28 -222 34 -301 14z m210 -155 c197 -46 330 -242
292 -432 -24 -128 -104 -232 -220 -287 -48 -23 -68 -26 -155 -26 -90 0 -106 3
-160 29 -76 38 -149 110 -183 184 -24 50 -27 69 -27 162 0 95 3 111 28 162 78
159 257 246 425 208z"/>
<path d="M1870 4087 c-148 -50 -251 -141 -318 -277 -157 -319 25 -692 373
-765 88 -18 132 -18 220 0 187 39 348 184 406 364 32 98 30 242 -4 333 -66
179 -183 294 -356 348 -90 28 -233 27 -321 -3z m322 -169 c240 -112 297 -425
111 -611 -151 -151 -385 -151 -536 0 -141 141 -150 371 -19 515 46 51 83 76
151 105 80 33 211 30 293 -9z"/>
<path d="M1338 2810 c-218 -39 -393 -202 -443 -412 -51 -216 47 -458 235 -578
164 -105 382 -111 555 -15 110 61 202 169 247 290 32 87 32 274 0 360 -60 162
-196 291 -359 338 -68 20 -175 28 -235 17z m220 -182 c69 -26 129 -72 173
-136 131 -188 67 -453 -134 -552 -202 -99 -425 -23 -520 178 -28 60 -32 77
-32 157 0 80 4 97 32 157 88 186 287 267 481 196z"/>
<path d="M2243 1755 c-79 -22 -120 -41 -187 -89 -158 -113 -247 -322 -218
-511 40 -257 246 -447 502 -462 108 -7 180 8 279 58 133 66 238 196 276 340
19 69 19 209 0 278 -49 184 -203 337 -391 386 -72 18 -191 18 -261 0z m250
-166 c83 -28 152 -81 197 -150 49 -77 63 -130 59 -231 -3 -67 -10 -95 -33
-142 -100 -205 -356 -276 -548 -154 -126 80 -196 238 -168 380 21 109 74 192
158 250 97 67 223 85 335 47z"/>
</g>
</svg>
