<?xml version="1.0" standalone="no"?>
<!DOCTYPE svg PUBLIC "-//W3C//DTD SVG 20010904//EN"
 "http://www.w3.org/TR/2001/REC-SVG-20010904/DTD/svg10.dtd">
<svg version="1.0" xmlns="http://www.w3.org/2000/svg"
 width="512.000000pt" height="512.000000pt" viewBox="0 0 512.000000 512.000000"
 preserveAspectRatio="xMidYMid meet">

<g transform="translate(0.000000,512.000000) scale(0.100000,-0.100000)"
fill="#000000" stroke="none">
<path d="M1555 4734 c-385 -38 -715 -143 -960 -306 -98 -65 -258 -223 -304
-300 -75 -128 -108 -259 -96 -378 8 -75 46 -200 74 -247 l20 -32 -31 -3 c-20
-2 -38 -13 -51 -30 -19 -26 -20 -32 -8 -110 24 -158 92 -282 225 -413 264
-262 703 -423 1222 -451 126 -6 132 -6 153 15 27 27 27 75 1 101 -17 17 -33
20 -115 20 -124 0 -260 15 -411 45 -528 106 -908 390 -941 705 l-6 58 94 -93
c268 -264 696 -427 1194 -454 209 -12 376 -2 404 23 24 22 27 63 7 91 -13 18
-30 19 -257 20 -252 2 -361 13 -549 56 -433 99 -766 325 -862 584 -32 85 -32
245 0 326 128 325 577 571 1150 630 158 16 504 6 647 -19 304 -54 563 -156
746 -294 238 -179 332 -415 253 -633 -37 -103 -40 -129 -15 -154 28 -28 67
-27 95 3 12 14 35 62 52 108 26 74 29 95 28 198 0 92 -5 128 -23 180 -71 205
-277 413 -536 542 -179 89 -411 160 -635 193 -109 16 -472 28 -565 19z"/>
<path d="M1728 4503 c-9 -10 -19 -27 -22 -39 -6 -19 -16 -22 -90 -26 -133 -9
-246 -73 -287 -163 -27 -59 -27 -231 1 -285 35 -69 129 -124 278 -160 l92 -22
0 -194 0 -194 -53 0 c-70 0 -137 24 -172 60 -23 24 -29 41 -33 87 -5 67 -23
93 -64 93 -49 0 -68 -30 -68 -107 0 -156 116 -257 313 -270 76 -6 78 -7 84
-35 6 -30 36 -58 64 -58 27 0 69 39 69 66 0 21 5 24 35 24 131 0 256 67 308
165 28 53 31 233 5 280 -41 75 -129 130 -267 166 l-81 22 0 200 0 199 53 -7
c123 -17 177 -63 177 -149 0 -72 30 -99 92 -83 35 9 52 59 42 124 -10 69 -19
88 -64 137 -52 57 -139 95 -230 103 -59 5 -70 9 -70 24 0 49 -80 78 -112 42z
m-28 -379 c0 -162 -1 -175 -17 -170 -10 3 -40 10 -68 17 -59 14 -121 43 -152
72 -20 18 -23 30 -23 95 0 72 1 76 34 107 42 39 83 53 164 54 l62 1 0 -176z
m220 -374 c56 -14 126 -54 140 -80 15 -29 12 -137 -5 -170 -20 -39 -85 -71
-157 -77 l-58 -6 0 177 c0 164 1 177 18 172 9 -3 37 -10 62 -16z"/>
<path d="M3210 3353 c-167 -18 -386 -81 -530 -153 -211 -106 -441 -308 -568
-500 -393 -590 -330 -1358 153 -1868 569 -602 1525 -626 2119 -52 232 224 369
471 437 790 33 151 33 428 0 580 -32 151 -74 268 -142 400 -231 445 -672 746
-1171 800 -93 10 -223 11 -298 3z m336 -304 c244 -37 495 -169 672 -353 332
-346 429 -853 246 -1294 -163 -393 -520 -671 -944 -733 -127 -18 -342 -7 -464
25 -537 140 -906 614 -906 1166 0 325 123 624 350 850 277 276 655 399 1046
339z"/>
<path d="M3180 2915 c-86 -14 -231 -60 -305 -97 -220 -110 -419 -327 -512
-558 -160 -395 -67 -848 236 -1151 379 -379 973 -419 1402 -93 85 65 209 202
263 293 107 178 150 339 149 561 0 134 -3 168 -26 252 -101 381 -397 678 -772
774 -126 32 -310 40 -435 19z m233 -193 c9 -9 17 -29 17 -47 0 -31 0 -32 70
-42 183 -29 287 -144 298 -333 4 -80 3 -89 -17 -109 -11 -11 -34 -21 -49 -21
-47 0 -64 30 -72 123 -3 45 -11 91 -17 102 -30 55 -113 105 -173 105 l-30 0 2
-297 3 -296 86 -29 c101 -34 187 -97 234 -172 l30 -49 0 -156 c0 -139 -2 -161
-22 -203 -49 -107 -158 -185 -272 -195 -61 -6 -61 -6 -61 -38 0 -45 -34 -85
-71 -85 -41 0 -69 32 -69 79 l0 38 -77 5 c-89 5 -150 29 -207 79 -75 65 -116
163 -116 275 0 76 20 107 70 107 51 0 70 -30 70 -112 0 -130 70 -208 194 -218
l66 -6 -2 294 -3 293 -102 37 c-109 40 -172 77 -221 134 -63 71 -67 86 -67
250 0 141 2 153 27 207 57 122 185 198 334 198 32 0 34 2 34 33 0 65 63 92
113 49z"/>
<path d="M3167 2485 c-94 -33 -126 -97 -127 -248 0 -123 9 -148 66 -192 27
-21 171 -85 192 -85 1 0 2 122 2 270 l0 270 -47 0 c-27 -1 -65 -7 -86 -15z"/>
<path d="M3440 1495 l0 -265 23 0 c72 0 157 55 183 117 9 21 14 75 14 155 l0
122 -53 50 c-34 33 -70 57 -103 69 -29 9 -54 17 -58 17 -3 0 -6 -119 -6 -265z"/>
<path d="M209 3009 c-19 -19 -21 -28 -15 -91 28 -282 240 -529 599 -698 226
-106 548 -183 799 -192 77 -2 108 16 108 64 0 46 -29 65 -107 72 -388 35 -676
123 -918 280 -206 135 -328 305 -342 479 -7 80 -25 107 -73 107 -17 0 -39 -9
-51 -21z"/>
<path d="M232 2590 c-38 -16 -47 -50 -34 -141 22 -153 85 -271 217 -405 107
-108 205 -176 369 -254 231 -111 498 -179 772 -197 109 -7 134 5 134 62 0 52
-25 65 -142 76 -415 39 -754 163 -992 363 -129 109 -226 285 -226 412 0 65
-46 104 -98 84z"/>
</g>
</svg>
