<?xml version="1.0" standalone="no"?>
<!DOCTYPE svg PUBLIC "-//W3C//DTD SVG 20010904//EN"
 "http://www.w3.org/TR/2001/REC-SVG-20010904/DTD/svg10.dtd">
<svg version="1.0" xmlns="http://www.w3.org/2000/svg"
 width="1024.000000pt" height="1024.000000pt" viewBox="0 0 1024.000000 1024.000000"
 preserveAspectRatio="xMidYMid meet">

<g transform="translate(0.000000,1024.000000) scale(0.100000,-0.100000)"
fill="#000000" stroke="none">
<path d="M3548 8359 c-29 -16 -39 -76 -28 -168 10 -88 35 -187 52 -208 14 -18
4 -16 -85 12 -144 46 -175 32 -163 -76 35 -302 284 -636 594 -793 28 -14 52
-29 52 -32 0 -3 -22 -31 -48 -62 -147 -172 -329 -510 -414 -767 -26 -79 -68
-263 -68 -297 0 -18 -5 -28 -14 -28 -21 0 -190 -88 -215 -111 -16 -15 -22 -17
-25 -7 -3 7 -38 117 -79 243 -42 127 -103 318 -137 425 -79 248 -158 455 -227
595 -95 191 -128 235 -175 235 -39 0 -55 -31 -63 -125 -7 -81 -47 -302 -63
-345 -7 -20 -13 -9 -42 71 -46 130 -124 318 -172 414 -121 240 -301 510 -380
568 -40 30 -72 12 -103 -56 -72 -160 -82 -469 -24 -787 10 -58 19 -114 19
-125 0 -12 -26 19 -64 77 -47 71 -72 123 -96 198 -35 108 -49 130 -83 130 -58
-1 -67 -35 -67 -251 0 -428 77 -869 242 -1389 84 -267 162 -516 205 -660 22
-76 26 -111 33 -340 5 -140 16 -316 24 -390 27 -230 15 -202 119 -261 51 -29
173 -100 272 -159 206 -122 422 -246 446 -255 12 -5 19 -25 24 -71 4 -36 11
-78 15 -95 l9 -29 -772 0 c-600 0 -778 -3 -797 -13 -31 -16 -39 -61 -14 -88
17 -18 42 -19 809 -19 l792 0 52 -80 c28 -44 82 -110 119 -148 61 -61 245
-193 397 -284 33 -20 70 -47 82 -60 18 -19 133 -194 133 -203 0 -1 -26 -6 -57
-10 -31 -4 -67 -11 -80 -16 -31 -11 -26 -21 83 -160 103 -131 130 -155 188
-163 133 -20 -4 -26 -683 -28 -701 -3 -730 -4 -750 -22 -28 -25 -28 -77 0
-102 20 -18 52 -19 913 -22 l893 -2 13 -26 c11 -20 12 -29 2 -42 -43 -60 -37
-96 21 -122 23 -11 49 -25 58 -32 23 -19 69 -91 63 -97 -3 -3 -447 -8 -986
-11 -955 -5 -980 -5 -994 -24 -20 -28 -17 -70 7 -92 21 -18 64 -19 1639 -22
l1618 -2 48 39 c27 21 84 69 126 107 42 38 206 184 365 325 158 141 326 290
372 332 65 59 87 74 100 67 9 -5 59 -48 111 -96 159 -146 182 -145 340 1 57
52 106 95 109 95 4 0 70 -55 147 -122 77 -68 230 -199 340 -293 109 -93 249
-212 309 -265 61 -53 136 -117 169 -143 l58 -48 495 3 495 3 19 24 c27 33 24
66 -7 90 -26 20 -37 21 -406 21 -377 0 -379 0 -368 20 8 14 11 262 12 805 l1
784 -30 53 c-32 57 -75 92 -132 108 -20 5 -141 10 -268 10 -150 0 -233 4 -233
10 0 6 7 54 14 108 28 187 39 390 33 636 -6 274 -24 385 -99 615 -122 376
-318 727 -500 895 -77 72 -241 180 -299 197 l-36 11 -11 88 c-23 172 -91 362
-220 615 -84 164 -201 347 -263 410 l-39 41 63 33 c191 104 374 280 472 455
78 139 137 354 111 406 -10 22 -17 25 -66 24 -34 -1 -80 -11 -117 -26 -35 -14
-63 -24 -63 -23 0 1 7 19 15 39 25 58 45 172 45 250 0 81 -20 116 -66 116 -38
0 -70 -20 -215 -136 -222 -178 -357 -257 -492 -289 -103 -25 -239 -28 -367
-11 -417 59 -542 62 -840 23 -276 -36 -343 -41 -438 -27 -177 24 -278 76 -544
282 -213 165 -226 173 -270 147z m242 -276 c168 -134 304 -212 429 -245 106
-28 255 -27 386 1 208 46 315 61 461 68 176 7 272 -3 529 -55 405 -81 584 -32
938 261 59 49 110 87 113 84 7 -7 -25 -153 -47 -212 -29 -78 -73 -140 -126
-179 -26 -19 -140 -90 -253 -157 -280 -168 -357 -224 -485 -353 -255 -257
-446 -568 -556 -906 -15 -47 -30 -78 -32 -70 -72 224 -180 457 -287 620 -130
197 -302 383 -471 510 -42 31 -154 103 -250 160 -318 189 -375 233 -420 321
-22 44 -69 212 -69 248 l0 25 33 -30 c17 -17 66 -58 107 -91z m-232 -251 c38
-16 121 -65 183 -109 63 -44 222 -152 354 -240 209 -140 377 -269 424 -327 9
-10 -6 -5 -35 13 -31 19 -124 52 -254 90 -114 33 -240 75 -282 94 -108 49
-247 155 -323 245 -86 103 -176 262 -147 262 6 0 41 -13 80 -28z m3247 -27
c-82 -187 -277 -372 -484 -461 -42 -18 -156 -56 -255 -84 -98 -28 -205 -64
-237 -81 -33 -16 -59 -27 -59 -25 0 2 48 45 108 96 128 110 767 541 862 581
92 39 94 38 65 -26z m-4866 -255 c133 -201 260 -467 342 -714 71 -213 229
-869 229 -950 0 -9 -56 26 -142 87 -259 186 -246 174 -263 237 -9 30 -58 183
-110 340 -97 294 -132 429 -160 616 -18 118 -24 349 -11 457 10 85 11 84 115
-73z m4174 -471 c140 -71 267 -223 321 -383 28 -83 38 -197 26 -302 -26 -238
-136 -443 -326 -604 -139 -119 -215 -167 -503 -319 -208 -110 -318 -182 -412
-269 l-70 -65 -52 50 c-102 98 -247 195 -482 323 -190 103 -393 234 -474 306
-124 111 -220 260 -265 417 -65 225 -52 427 40 583 49 84 134 178 202 224 57
38 74 45 129 48 124 8 319 -72 446 -183 81 -70 94 -90 76 -111 -18 -22 -59
-17 -96 12 -38 29 -40 42 -13 76 l19 25 -72 22 c-121 36 -184 23 -254 -51 -33
-35 -83 -122 -83 -145 0 -8 -5 -11 -11 -8 -16 11 -121 34 -149 34 -33 0 -9
-14 40 -24 19 -4 51 -11 71 -16 l36 -9 6 -70 c4 -44 16 -92 32 -127 l26 -57
-43 -43 c-23 -24 -38 -43 -34 -43 5 0 26 17 46 38 l37 38 39 -33 c22 -18 56
-40 77 -49 20 -9 37 -20 37 -24 0 -3 -11 -39 -24 -78 -14 -40 -22 -72 -18 -72
4 0 18 32 32 72 l25 72 90 0 c70 1 101 6 137 23 59 27 143 105 170 158 l21 40
18 -40 c9 -22 38 -105 64 -185 119 -374 139 -431 150 -447 10 -14 21 11 69
163 32 98 81 253 110 342 l52 164 26 -39 c41 -62 106 -120 166 -150 49 -24 69
-28 146 -28 l90 0 35 -74 c19 -41 36 -70 38 -65 2 6 -10 40 -27 77 -16 37 -30
68 -30 71 0 2 21 16 46 31 25 15 55 36 66 47 20 20 20 20 76 -18 32 -21 63
-42 70 -47 7 -6 12 -6 12 0 0 6 -27 29 -60 52 -33 23 -60 46 -60 51 0 5 9 25
21 44 l21 36 32 -25 c18 -14 37 -25 42 -25 5 0 -9 12 -30 26 -35 24 -38 29
-32 63 3 20 6 59 6 87 l0 51 88 19 c52 11 77 20 61 22 -14 2 -54 -3 -88 -11
l-61 -14 -27 54 c-31 60 -69 103 -126 141 -32 21 -45 24 -95 19 -31 -3 -80
-13 -109 -23 l-52 -17 24 -29 c29 -34 24 -51 -20 -78 -38 -23 -63 -25 -89 -5
-17 13 -15 17 40 75 99 104 240 182 387 214 87 19 102 19 150 -5z m-3397 -271
c24 -64 44 -128 46 -142 2 -19 -23 -57 -106 -161 -75 -94 -112 -133 -117 -123
-4 7 -12 39 -19 72 -7 32 -20 83 -31 113 l-18 54 45 107 c26 59 58 153 72 209
l27 103 29 -58 c16 -31 48 -110 72 -174z m-1112 143 c46 -78 61 -98 167 -228
31 -37 70 -93 87 -123 31 -56 113 -260 126 -315 l8 -30 -29 26 c-15 14 -92 75
-171 135 -79 60 -152 116 -163 124 -21 17 -40 114 -59 305 -5 61 -13 127 -15
148 -3 20 -4 37 -2 37 2 0 25 -35 51 -79z m1266 -588 c22 -79 99 -312 170
-518 71 -206 132 -397 136 -423 7 -57 -8 -93 -89 -210 -44 -65 -49 -75 -39
-97 7 -14 17 -25 23 -25 6 0 54 41 108 91 l96 92 37 -79 c20 -44 37 -82 37
-86 1 -5 -30 -41 -67 -80 -96 -103 -127 -146 -166 -229 -58 -123 -67 -192 -66
-521 0 -160 3 -309 6 -331 9 -61 -6 -38 -53 78 -45 110 -84 294 -188 890 -74
423 -180 1008 -211 1169 l-25 129 25 36 c14 20 47 62 73 93 26 31 68 83 93
116 25 33 48 57 52 54 4 -4 25 -71 48 -149z m874 -184 c40 -156 98 -258 220
-386 134 -141 291 -253 533 -379 289 -151 345 -186 442 -278 35 -34 90 -99
124 -146 97 -137 82 -133 148 -33 122 185 194 242 511 401 570 286 822 569
855 958 6 69 7 74 19 53 24 -48 54 -218 54 -313 0 -86 -3 -99 -31 -152 -62
-118 -175 -248 -293 -338 -39 -30 -138 -96 -221 -147 -332 -207 -497 -435
-599 -830 -19 -74 -44 -208 -55 -298 -12 -90 -26 -170 -33 -178 -8 -10 -9 -64
-4 -196 5 -100 8 -191 7 -202 0 -11 9 -26 20 -34 17 -10 20 -10 14 1 -6 9 -5
10 3 3 5 -5 30 -55 55 -110 l45 -100 -39 -7 c-21 -4 -48 -13 -61 -20 -13 -7
-27 -11 -33 -9 -5 1 -7 0 -3 -4 4 -4 -5 -19 -19 -34 -58 -60 -62 -84 -64 -367
-1 -142 -4 -319 -7 -392 l-4 -133 -53 6 c-71 9 -167 9 -240 0 -67 -8 -68 -8
-110 0 -25 4 -27 4 -10 -5 18 -9 17 -10 -7 -7 -16 3 -28 -1 -28 -7 0 -16 -115
-60 -131 -51 -8 6 -11 4 -7 -7 5 -11 1 -14 -17 -10 -16 3 -60 -14 -125 -47
-56 -28 -106 -48 -112 -45 -6 4 -8 3 -5 -3 4 -6 -33 -36 -82 -67 -48 -31 -101
-67 -117 -81 -16 -14 -32 -25 -36 -25 -11 0 -208 336 -275 467 -35 69 -56 124
-56 145 0 18 3 123 7 233 7 177 6 219 -13 365 -20 148 -39 247 -58 296 -5 13
-3 15 8 9 10 -6 9 -3 -2 11 -18 20 -69 161 -69 188 0 9 6 16 14 16 8 0 37 25
64 56 61 69 88 150 79 242 -6 76 -30 125 -87 183 -47 48 -134 89 -189 89 -25
0 -30 5 -36 38 -3 20 -9 47 -12 60 -4 19 -2 22 18 19 24 -4 104 23 147 50 62
39 150 156 134 179 -15 22 -113 74 -178 94 -47 14 -90 20 -134 19 l-65 -3 -16
45 c-9 24 -15 47 -12 52 7 12 185 8 238 -7 63 -16 117 -41 172 -78 23 -15 46
-28 52 -28 14 0 -26 113 -57 159 -103 153 -307 345 -525 495 -53 37 -95 71
-92 76 3 5 -3 11 -14 15 -28 9 -32 31 -11 58 23 29 155 99 227 120 l51 15 55
-86 c84 -133 259 -298 411 -389 156 -93 238 -154 322 -238 50 -50 97 -101 104
-114 l12 -24 -33 26 c-44 33 -191 118 -299 172 -47 24 -114 59 -150 79 -75 41
-114 46 -130 15 -7 -11 -10 -22 -8 -23 2 -2 48 -28 103 -58 169 -93 246 -139
340 -201 116 -77 270 -232 312 -312 31 -60 65 -176 79 -268 l7 -49 -49 35
c-74 53 -137 70 -241 65 -67 -3 -100 -10 -138 -28 -65 -32 -155 -120 -155
-153 0 -36 23 -39 62 -11 116 88 256 114 364 69 40 -16 112 -82 147 -133 33
-47 47 -172 47 -406 -1 -489 -146 -872 -461 -1213 -76 -83 -80 -90 -74 -123 4
-19 7 -40 7 -47 1 -7 5 -10 9 -8 3 3 9 -4 12 -15 3 -11 11 -20 19 -20 8 0 59
46 114 102 54 56 103 101 109 99 5 -1 7 1 3 5 -7 6 32 62 79 114 8 8 21 24 29
35 13 16 15 17 10 3 -9 -31 17 -15 46 27 17 25 28 53 28 75 0 42 69 200 87
200 7 0 13 2 13 4 0 2 3 13 6 23 6 16 5 16 -9 -2 -11 -13 -5 11 14 65 67 187
166 688 131 667 -7 -5 -12 22 -16 80 -35 499 -81 760 -171 972 -109 257 -257
419 -550 601 -244 152 -362 263 -471 443 -47 77 -49 84 -49 151 1 96 15 178
26 151 5 -14 8 -7 7 25 -1 25 10 77 23 115 l23 70 8 -82 c3 -45 14 -110 22
-144z m-1724 -80 c129 -96 299 -221 377 -278 108 -78 143 -109 147 -129 3 -15
15 -81 26 -147 12 -66 41 -226 65 -355 24 -129 58 -316 75 -415 17 -99 47
-264 66 -367 19 -102 34 -189 34 -192 0 -4 -29 17 -64 46 -36 29 -104 78 -153
108 -48 30 -151 95 -228 145 -77 50 -179 116 -227 146 l-88 54 0 49 c0 42 2
47 18 41 45 -17 72 -17 78 0 5 13 -7 30 -43 64 -42 38 -52 55 -63 101 -9 42
-74 258 -115 388 -6 18 29 -2 85 -48 127 -105 266 -213 293 -227 28 -14 32
-14 44 3 12 16 9 23 -25 59 -53 54 -104 125 -77 105 11 -8 28 -23 38 -35 11
-13 17 -15 15 -6 -3 15 -50 61 -63 61 -3 0 -41 31 -83 69 -42 38 -109 93 -148
123 -150 113 -139 95 -211 326 -59 191 -143 492 -158 570 l-7 33 79 -58 c43
-32 184 -138 313 -234z m4867 -315 c116 -56 260 -185 357 -319 32 -44 98 -157
94 -160 -2 -1 -34 -7 -73 -13 -161 -26 -286 -86 -396 -189 -128 -121 -197
-258 -221 -438 l-13 -98 -55 -13 c-30 -8 -74 -21 -98 -30 -40 -15 -44 -15 -55
0 -33 45 -110 189 -127 239 -47 132 -9 280 113 450 45 61 52 77 38 77 -10 0
-25 -7 -32 -17 -8 -9 -29 -22 -47 -30 -74 -31 -172 -228 -172 -347 0 -35 -8
-47 -76 -118 -44 -47 -86 -101 -99 -131 -26 -56 -50 -181 -39 -199 5 -8 -2 -8
-22 -2 -16 5 -67 9 -114 9 -93 0 -193 -29 -226 -66 -9 -10 -20 -19 -24 -19
-10 0 56 229 95 332 42 108 63 148 88 171 11 9 15 17 9 17 -6 0 -9 7 -5 16 5
13 7 13 15 2 7 -10 11 -10 22 4 7 10 15 16 18 13 7 -8 3 29 -6 43 -4 7 5 30
22 55 57 83 178 184 373 313 162 106 211 145 299 233 72 73 120 132 153 188
l47 81 51 -13 c28 -8 76 -26 106 -41z m562 -692 c127 -253 213 -580 223 -842
l3 -75 -40 -5 c-39 -5 -40 -6 -43 -46 -3 -40 -2 -42 32 -48 34 -7 36 -9 36
-46 0 -45 -7 -48 -72 -30 -45 13 -68 44 -97 131 -41 125 -129 234 -257 318
-92 61 -208 99 -347 114 l-109 12 6 72 c18 198 138 375 309 457 70 34 284 97
300 89 4 -3 29 -48 56 -101z m-4024 -232 c35 -110 37 -190 4 -255 -23 -47 -23
-47 -4 -61 11 -8 29 -13 41 -10 19 5 24 -9 72 -207 28 -117 61 -263 74 -325
l23 -114 -40 -31 c-22 -18 -91 -79 -153 -136 -63 -58 -117 -100 -121 -95 -5 5
-36 48 -69 95 l-61 87 -11 288 c-16 411 -4 547 61 674 33 66 138 195 149 183
5 -4 20 -46 35 -93z m2398 65 c-9 -16 -10 -16 -16 -1 -5 12 -3 15 5 10 8 -5 9
-1 4 12 -5 14 -4 16 4 7 8 -7 9 -17 3 -28z m-2223 -194 c0 -32 -6 -24 -14 19
-4 25 -3 31 4 20 5 -8 10 -26 10 -39z m2745 -235 c28 -45 64 -94 79 -110 25
-26 29 -27 44 -13 60 54 367 86 514 53 109 -24 204 -74 281 -146 55 -52 75
-80 118 -167 69 -142 120 -189 224 -209 35 -6 35 -7 35 -58 0 -65 -16 -221
-31 -308 l-12 -68 -158 0 -157 0 -35 48 c-20 26 -45 56 -56 66 -11 10 -18 23
-15 27 3 5 -1 7 -8 4 -7 -2 -24 11 -38 29 -14 19 -61 79 -104 135 -76 97 -80
101 -118 101 -36 0 -39 -2 -32 -22 4 -13 12 -30 18 -38 31 -43 196 -250 234
-293 24 -27 42 -51 39 -53 -8 -9 -188 20 -267 43 -173 49 -455 185 -523 251
-60 58 -67 71 -124 235 -52 152 -75 201 -136 289 -25 34 -50 81 -57 102 -28
86 15 218 98 305 l43 45 46 -84 c25 -46 69 -120 98 -164z m-2738 182 c-3 -8
-6 -5 -6 6 -1 11 2 17 5 13 3 -3 4 -12 1 -19z m16 -43 c-3 -9 -8 -14 -10 -11
-3 3 -2 9 2 15 9 16 15 13 8 -4z m47 11 c0 -3 -4 -8 -10 -11 -5 -3 -10 -1 -10
4 0 6 5 11 10 11 6 0 10 -2 10 -4z m-1435 -194 c83 -54 179 -115 215 -137 122
-73 294 -200 365 -270 64 -63 80 -87 155 -237 46 -92 82 -169 80 -171 -3 -3
-43 18 -90 45 -47 27 -231 135 -410 240 -404 237 -421 247 -442 262 -13 10
-22 50 -37 172 -12 87 -21 172 -21 187 0 33 -18 42 185 -91z m3713 -121 c82
-42 145 -142 210 -332 88 -256 151 -330 382 -448 80 -40 147 -75 149 -77 2 -2
-214 -4 -482 -4 l-486 0 -15 33 c-34 72 -84 217 -100 286 -24 104 -31 253 -17
323 36 172 226 288 359 219z m-2239 -682 c16 -52 36 -137 45 -189 20 -113 34
-430 19 -430 -5 0 -41 46 -78 103 -38 56 -113 166 -167 244 -54 78 -98 146
-98 151 0 5 42 49 93 98 124 119 141 132 150 124 4 -4 21 -50 36 -101z m-354
-224 c107 -139 293 -427 692 -1074 122 -197 139 -228 130 -238 -16 -15 -239
230 -370 405 -122 164 -293 440 -407 655 -60 114 -210 431 -210 443 1 13 61
-56 165 -191z m-273 53 c26 -18 48 -55 194 -333 l68 -130 -55 40 c-29 21 -77
56 -105 76 -58 43 -125 116 -160 175 -27 46 -68 160 -78 217 l-7 38 58 -32
c32 -18 70 -41 85 -51z m2770 -405 c161 -141 366 -322 455 -400 l163 -144 -84
-72 c-259 -224 -357 -311 -746 -660 -47 -42 -94 -77 -105 -77 -50 0 -50 -8
-53 770 -2 399 0 739 3 756 6 37 40 84 60 84 7 0 145 -116 307 -257z m2108
253 c0 -2 -35 -32 -77 -67 -94 -77 -610 -528 -743 -649 -147 -134 -273 -240
-286 -240 -6 0 -19 10 -30 21 -35 40 -853 773 -1023 916 l-26 22 1093 0 c600
0 1092 -1 1092 -3z m272 -25 l33 -29 3 -751 2 -750 -29 -33 c-41 -46 0 -75
-486 347 -89 77 -219 190 -290 250 -71 61 -149 128 -172 150 l-43 40 207 180
c221 192 287 250 509 448 136 121 207 177 225 177 5 0 23 -13 41 -29z m-3596
-470 c-1 -31 -15 -55 -17 -30 0 8 -6 -4 -13 -26 -9 -31 -13 -36 -19 -22 -3 9
-2 17 3 17 6 0 10 6 10 14 0 11 31 76 36 76 1 0 1 -13 0 -29z m643 -440 c14
-4 26 -11 28 -17 2 -6 -48 -10 -142 -9 -104 0 -145 3 -145 12 0 6 10 14 23 16
36 7 210 6 236 -2z m-369 -52 c0 -18 -2 -19 -15 -9 -8 7 -15 16 -15 21 0 5 7
9 15 9 9 0 15 -9 15 -21z m-210 -69 c0 -11 -4 -20 -9 -20 -6 0 -47 -25 -92
-55 -51 -34 -89 -53 -98 -49 -20 7 27 49 119 105 75 45 80 46 80 19z m420 -81
c-20 -8 -22 -12 -10 -20 12 -8 10 -9 -7 -4 -18 5 -21 2 -17 -17 4 -21 4 -21
-5 -3 -7 15 -4 24 11 38 11 9 28 17 37 16 10 0 7 -4 -9 -10z m98 -11 c5 -7 6
-21 3 -32 -4 -10 0 -46 8 -80 21 -85 19 -186 -4 -202 -10 -8 -19 -29 -21 -51
-1 -21 -8 -39 -14 -41 -9 -3 -8 -7 1 -14 10 -7 8 -8 -8 -5 -12 3 -24 2 -26 -2
-2 -3 -2 0 0 7 1 8 3 84 3 169 l0 155 24 -4 c23 -5 24 -3 24 49 l-1 55 -36 -7
c-26 -4 -32 -3 -21 4 21 15 56 14 68 -1z m36 -45 c4 -26 3 -75 -4 -98 -4 -16
-18 46 -19 88 -1 43 15 50 23 10z m-54 -28 c0 -8 -4 -15 -10 -15 -5 0 -10 7
-10 15 0 8 5 15 10 15 6 0 10 -7 10 -15z m-139 -117 c-4 -10 -7 14 -8 54 l-1
73 8 -54 c5 -30 5 -63 1 -73z m-781 72 c0 -9 -11 -22 -25 -28 -35 -16 -42 -15
-50 5 -9 24 43 67 62 51 7 -6 13 -18 13 -28z m531 22 c6 -2 60 -107 88 -174
15 -36 16 -45 5 -41 -9 3 -14 -2 -14 -15 0 -17 -15 -10 -99 46 -54 37 -97 71
-94 75 3 4 12 2 21 -5 15 -11 15 -11 5 3 -7 9 -9 19 -5 24 4 4 -4 2 -17 -5
-19 -10 -25 -10 -31 1 -12 18 5 54 24 53 8 -1 18 7 21 17 7 22 54 32 96 21z
m276 -29 c-3 -10 -5 -4 -5 12 0 17 2 24 5 18 2 -7 2 -21 0 -30z m23 -58 c-7
-9 -15 -13 -18 -10 -3 2 1 11 8 20 7 9 15 13 18 10 3 -2 -1 -11 -8 -20z m-775
-6 c4 -11 37 -40 75 -64 37 -24 75 -54 84 -67 16 -22 76 -198 91 -268 l8 -35
-49 45 c-27 26 -77 61 -111 80 -58 32 -64 39 -94 105 -17 38 -44 90 -60 113
-16 24 -31 48 -32 52 -2 8 61 57 75 59 4 1 10 -8 13 -20z m742 -46 c-3 -10 -5
-2 -5 17 0 19 2 27 5 18 2 -10 2 -26 0 -35z m40 5 c-3 -8 -6 -5 -6 6 -1 11 2
17 5 13 3 -3 4 -12 1 -19z m-2 -38 c3 -10 3 -36 -1 -57 l-7 -38 -9 30 c-4 17
-6 41 -3 53 4 17 2 22 -6 16 -8 -4 -9 -3 -5 4 11 18 24 14 31 -8z m-36 -50 c1
-13 0 -13 -9 0 -5 8 -9 26 -9 40 l1 25 8 -25 c4 -14 8 -32 9 -40z m-149 -25
c0 -2 -6 -5 -13 -8 -8 -3 -14 1 -14 8 0 7 6 11 14 8 7 -3 13 -6 13 -8z m299
-35 c0 -10 -3 -8 -9 5 -12 27 -12 43 0 25 5 -8 9 -22 9 -30z m-132 -22 c-3 -7
-5 -2 -5 12 0 14 2 19 5 13 2 -7 2 -19 0 -25z m20 10 c-3 -8 -6 -5 -6 6 -1 11
2 17 5 13 3 -3 4 -12 1 -19z m94 -61 c-9 -24 -16 -27 -60 -27 -39 0 -53 4 -61
19 -16 30 -12 41 13 40 18 -1 19 -2 4 -6 -16 -4 -15 -7 8 -19 34 -17 84 -18
87 -1 0 6 2 17 3 22 2 6 4 15 5 20 1 6 4 3 7 -6 2 -8 -1 -28 -6 -42z m-447 -8
c28 -17 28 -17 -54 -16 -64 2 -84 5 -88 17 -4 12 -2 13 9 3 7 -7 24 -13 37
-13 21 0 23 4 18 25 -6 24 -5 24 21 13 16 -7 41 -20 57 -29z m-98 16 c10 -9
11 -15 4 -15 -6 0 -18 7 -26 15 -10 9 -11 15 -4 15 6 0 18 -7 26 -15z"/>
<path d="M4765 7619 c-11 -17 31 -49 66 -49 60 0 42 46 -23 56 -23 4 -38 2
-43 -7z"/>
<path d="M5424 7620 c-12 -5 -25 -13 -28 -18 -6 -10 19 -42 32 -42 15 1 86 46
90 58 4 14 -60 16 -94 2z"/>
<path d="M5080 7540 c-12 -7 -12 -13 -4 -27 16 -26 47 -27 75 -4 20 18 22 22
9 31 -19 12 -60 13 -80 0z"/>
<path d="M6114 6476 c11 -9 24 -16 30 -16 12 0 7 5 -24 19 -24 11 -24 11 -6
-3z"/>
<path d="M5120 4287 c-13 -7 -35 -28 -48 -47 -21 -30 -23 -44 -19 -95 2 -34
14 -79 26 -103 46 -90 102 -89 146 4 35 73 35 155 0 207 -14 20 -32 37 -40 37
-7 0 -19 2 -27 5 -7 3 -24 -1 -38 -8z"/>
<path d="M5104 3912 c-17 -11 -36 -34 -44 -51 -20 -49 -8 -150 26 -219 25 -50
33 -57 61 -60 27 -3 35 2 57 35 34 51 59 154 51 205 -14 82 -90 127 -151 90z"/>
<path d="M5446 3637 c3 -10 9 -15 12 -12 3 3 0 11 -7 18 -10 9 -11 8 -5 -6z"/>
<path d="M5481 3574 c0 -11 3 -14 6 -6 3 7 2 16 -1 19 -3 4 -6 -2 -5 -13z"/>
<path d="M5130 3532 c-39 -12 -60 -45 -60 -94 0 -50 36 -144 64 -168 34 -28
93 61 103 155 5 44 2 55 -18 78 -24 26 -61 39 -89 29z"/>
<path d="M5091 3154 c-39 -50 -23 -112 35 -135 76 -28 141 83 81 139 -34 32
-89 30 -116 -4z"/>
<path d="M4706 2975 c-3 -9 -6 -22 -5 -28 0 -7 5 -1 10 12 5 13 8 26 5 28 -2
2 -6 -3 -10 -12z"/>
<path d="M4886 2977 c3 -10 9 -15 12 -12 3 3 0 11 -7 18 -10 9 -11 8 -5 -6z"/>
<path d="M4671 2904 c-12 -27 -11 -28 4 -12 10 9 16 21 13 28 -2 7 -10 -1 -17
-16z"/>
<path d="M4700 2914 c0 -8 5 -12 10 -9 6 3 10 10 10 16 0 5 -4 9 -10 9 -5 0
-10 -7 -10 -16z"/>
<path d="M5138 2782 c-33 -4 -39 -19 -25 -65 11 -34 15 -37 49 -37 31 0 38 4
38 19 0 12 -11 24 -27 30 l-28 11 27 -5 c14 -3 34 -8 44 -12 16 -6 17 -5 4 9
-8 9 -19 13 -24 10 -5 -3 -7 1 -4 10 8 19 -20 34 -54 30z m-12 -32 c0 -12 -4
-16 -9 -11 -5 5 -6 14 -3 20 10 15 12 14 12 -9z m51 14 c-3 -3 -12 -4 -19 -1
-8 3 -5 6 6 6 11 1 17 -2 13 -5z"/>
<path d="M4626 2745 c-9 -26 -7 -32 5 -12 6 10 9 21 6 23 -2 3 -7 -2 -11 -11z"/>
<path d="M4950 2729 c0 -5 5 -7 10 -4 6 3 10 8 10 11 0 2 -4 4 -10 4 -5 0 -10
-5 -10 -11z"/>
<path d="M4536 2678 c3 -5 10 -6 15 -3 13 9 11 12 -6 12 -8 0 -12 -4 -9 -9z"/>
<path d="M4094 2628 c-3 -5 0 -7 8 -6 7 2 12 -3 11 -9 -4 -19 5 -16 16 5 8 14
6 18 -11 18 -10 0 -22 -4 -24 -8z"/>
<path d="M4445 2560 c-8 -13 3 -30 18 -30 8 0 7 3 -2 9 -7 5 -10 14 -7 20 4 6
5 11 2 11 -3 0 -8 -4 -11 -10z"/>
<path d="M4945 2560 l-20 -9 20 0 c16 -1 17 -3 6 -10 -12 -8 -9 -11 12 -17 16
-3 31 -4 34 0 4 3 -5 6 -18 7 -13 0 -18 3 -10 6 10 4 11 7 1 13 -13 8 67 7
180 -3 30 -2 36 -2 13 0 -24 2 -43 8 -43 14 0 11 -148 11 -175 -1z"/>
<path d="M5285 2550 c-3 -5 -1 -10 4 -10 6 0 11 5 11 10 0 6 -2 10 -4 10 -3 0
-8 -4 -11 -10z"/>
<path d="M4895 2540 c-16 -7 -17 -9 -3 -9 9 -1 20 4 23 9 7 11 7 11 -20 0z"/>
<path d="M5028 2533 c12 -2 32 -2 45 0 12 2 2 4 -23 4 -25 0 -35 -2 -22 -4z"/>
<path d="M5288 2523 c6 -2 18 -2 25 0 6 3 1 5 -13 5 -14 0 -19 -2 -12 -5z"/>
<path d="M4379 2493 c-12 -16 -12 -17 2 -6 9 7 20 9 24 5 5 -4 5 -1 1 6 -9 16
-11 15 -27 -5z"/>
<path d="M4435 2500 c-3 -5 -1 -10 4 -10 6 0 11 5 11 10 0 6 -2 10 -4 10 -3 0
-8 -4 -11 -10z"/>
<path d="M4346 2454 c-11 -7 -16 -17 -13 -21 4 -4 15 1 24 10 22 21 14 30 -11
11z"/>
<path d="M4708 2463 c7 -3 16 -2 19 1 4 3 -2 6 -13 5 -11 0 -14 -3 -6 -6z"/>
<path d="M4668 2453 c7 -3 16 -2 19 1 4 3 -2 6 -13 5 -11 0 -14 -3 -6 -6z"/>
<path d="M4304 2419 c-4 -7 -3 -9 4 -5 5 3 13 0 15 -6 4 -9 6 -10 6 -1 1 17
-16 25 -25 12z"/>
<path d="M4276 2385 c-9 -26 -7 -32 5 -12 6 10 9 21 6 23 -2 3 -7 -2 -11 -11z"/>
<path d="M5896 5028 c3 -5 10 -6 15 -3 13 9 11 12 -6 12 -8 0 -12 -4 -9 -9z"/>
<path d="M5863 5008 c-20 -26 -22 -35 -8 -35 8 0 12 4 9 9 -4 5 2 16 12 23 11
8 14 15 8 15 -6 0 -16 -6 -21 -12z"/>
<path d="M6995 4888 c-55 -30 -62 -93 -15 -140 25 -25 35 -29 63 -23 82 17
107 124 36 160 -33 18 -57 18 -84 3z"/>
<path d="M6366 4044 c-18 -47 1 -84 44 -84 14 0 31 5 38 12 7 7 12 24 12 38 0
14 -5 31 -12 38 -18 18 -75 15 -82 -4z"/>
<path d="M5214 1996 c-3 -8 -4 -23 -2 -33 3 -11 6 -6 9 15 6 34 2 42 -7 18z"/>
<path d="M5226 1929 c-4 -23 -5 -44 -2 -46 2 -2 7 14 11 37 4 23 5 43 2 46 -2
3 -7 -14 -11 -37z"/>
<path d="M5242 2110 c0 -14 2 -19 5 -12 2 6 2 18 0 25 -3 6 -5 1 -5 -13z"/>
<path d="M4807 2003 c5 -60 10 -65 15 -13 2 23 -1 45 -7 50 -8 7 -10 -4 -8
-37z"/>
<path d="M4684 2026 c3 -25 12 -28 27 -9 7 10 9 15 5 11 -5 -4 -15 -3 -22 3
-9 7 -12 6 -10 -5z"/>
<path d="M4838 1983 c5 -21 7 -23 10 -9 2 10 0 22 -6 28 -6 6 -7 0 -4 -19z"/>
<path d="M4778 1983 c7 -3 16 -2 19 1 4 3 -2 6 -13 5 -11 0 -14 -3 -6 -6z"/>
<path d="M4745 1950 c3 -5 10 -10 16 -10 5 0 9 5 9 10 0 6 -7 10 -16 10 -8 0
-12 -4 -9 -10z"/>
<path d="M4790 1915 c6 -7 19 -11 27 -8 11 4 14 2 9 -5 -5 -8 -1 -10 10 -5 12
5 15 3 9 -6 -6 -10 -3 -11 14 -2 12 7 21 8 21 2 0 -5 -6 -11 -12 -14 -10 -3
-10 -8 1 -18 9 -9 11 -9 7 -1 -4 6 -2 12 4 12 17 0 7 35 -10 36 -34 2 -41 4
-37 12 3 4 -8 8 -25 9 -25 2 -28 0 -18 -12z"/>
<path d="M5101 1884 c0 -11 3 -14 6 -6 3 7 2 16 -1 19 -3 4 -6 -2 -5 -13z"/>
<path d="M7700 7722 c-20 -16 -21 -21 -11 -41 14 -26 48 -25 65 2 8 12 8 22 0
34 -15 25 -28 26 -54 5z"/>
<path d="M7855 7160 c-33 -37 2 -92 49 -74 9 3 19 18 23 32 4 19 1 30 -17 44
-28 23 -33 23 -55 -2z"/>
<path d="M7017 6994 c-90 -28 -157 -120 -157 -215 0 -40 32 -114 63 -147 60
-65 168 -83 251 -42 107 51 155 180 107 285 -33 74 -125 137 -196 134 -11 0
-42 -7 -68 -15z m153 -66 c57 -39 75 -72 75 -137 0 -48 -5 -64 -29 -95 -59
-77 -140 -97 -218 -54 -98 55 -110 188 -25 269 31 30 55 38 113 38 37 1 60 -5
84 -21z"/>
<path d="M7845 6291 c-103 -48 -143 -156 -95 -255 39 -82 127 -126 209 -106
109 26 179 154 140 257 -24 64 -109 123 -179 123 -19 0 -53 -9 -75 -19z m134
-65 c64 -33 82 -122 37 -181 -73 -95 -202 -55 -214 64 -4 49 -3 53 36 91 32
32 47 40 76 40 20 0 50 -7 65 -14z"/>
<path d="M1633 5314 c-15 -24 -15 -29 -2 -53 28 -50 109 -34 109 23 0 55 -76
76 -107 30z"/>
<path d="M8284 5041 c-62 -28 -89 -73 -89 -148 0 -47 5 -68 21 -89 52 -70 130
-92 201 -55 130 66 129 233 -1 292 -52 23 -80 23 -132 0z"/>
<path d="M1660 4856 c0 -2 7 -7 16 -10 8 -3 12 -2 9 4 -6 10 -25 14 -25 6z"/>
<path d="M8170 3970 c-25 -25 -26 -62 -2 -83 15 -13 39 -17 110 -17 79 0 95 3
112 20 23 23 24 33 9 63 -18 34 -28 37 -121 37 -75 0 -91 -3 -108 -20z"/>
<path d="M1652 3038 c-19 -19 -14 -45 10 -62 19 -13 25 -14 43 -2 26 18 30 40
10 60 -19 19 -46 21 -63 4z"/>
<path d="M2192 3028 c-26 -26 -6 -68 33 -68 41 0 60 45 30 70 -12 10 -18 10
-32 -1 -11 -10 -14 -10 -9 -1 9 15 -6 16 -22 0z"/>
<path d="M2362 3028 c-19 -19 -14 -38 14 -50 22 -10 28 -10 39 6 26 35 -22 75
-53 44z"/>
<path d="M2131 2732 c-192 -2 -228 -5 -243 -19 -24 -22 -23 -45 5 -71 l23 -22
662 0 661 0 15 22 c23 32 20 54 -11 77 -26 21 -33 21 -457 19 -237 -2 -532 -4
-655 -6z"/>
<path d="M1652 2318 c-28 -28 -3 -72 39 -66 30 4 47 33 33 56 -14 21 -55 27
-72 10z"/>
<path d="M1654 1690 c-26 -10 -54 -48 -54 -71 0 -9 9 -28 21 -43 28 -36 89
-37 124 -1 31 30 32 57 3 89 -26 29 -63 39 -94 26z"/>
<path d="M1984 1686 c-75 -33 -51 -136 32 -136 45 0 73 15 84 46 14 36 -4 73
-45 89 -40 18 -33 17 -71 1z"/>
<path d="M1350 1652 c-47 -38 5 -102 59 -72 28 14 27 55 -1 74 -28 20 -31 20
-58 -2z"/>
<path d="M7172 1438 c-19 -19 -14 -65 9 -81 25 -18 55 -11 74 16 19 28 19 33
-5 57 -22 22 -60 26 -78 8z"/>
</g>
</svg>
