<?xml version="1.0" standalone="no"?>
<!DOCTYPE svg PUBLIC "-//W3C//DTD SVG 20010904//EN"
 "http://www.w3.org/TR/2001/REC-SVG-20010904/DTD/svg10.dtd">
<svg version="1.0" xmlns="http://www.w3.org/2000/svg"
 width="512.000000pt" height="512.000000pt" viewBox="0 0 512.000000 512.000000"
 preserveAspectRatio="xMidYMid meet">

<g transform="translate(0.000000,512.000000) scale(0.100000,-0.100000)"
fill="#000000" stroke="none">
<path d="M2722 5113 c-33 -13 -42 -60 -42 -213 l0 -150 -27 0 c-53 0 -101 -21
-132 -56 l-31 -35 0 -736 c0 -720 0 -736 20 -768 25 -40 74 -65 128 -65 l41 0
3 -214 c3 -194 5 -216 22 -235 25 -27 79 -28 106 -1 19 19 20 33 20 235 l0
215 48 0 c56 0 104 26 132 72 19 31 20 51 20 361 0 314 -1 328 -20 347 -30 30
-83 27 -109 -6 -20 -26 -21 -38 -21 -325 l0 -299 -125 0 -125 0 2 678 3 677
123 3 122 3 0 -240 c0 -235 0 -240 23 -265 32 -36 74 -39 107 -6 19 19 20 33
20 285 0 292 -2 304 -60 345 -18 13 -53 24 -85 27 l-55 6 0 163 0 163 -26 20
c-26 20 -55 25 -82 14z"/>
<path d="M3592 4757 c-20 -21 -22 -35 -24 -187 l-3 -165 -172 -3 -172 -2 -20
-27 c-12 -14 -21 -33 -21 -43 0 -10 9 -29 21 -43 l20 -27 172 -2 172 -3 3
-156 2 -156 -57 -6 c-65 -7 -100 -29 -125 -78 -16 -31 -18 -77 -18 -510 l0
-476 23 -34 c28 -43 80 -69 135 -69 l42 0 0 -314 0 -315 26 -20 c33 -26 65
-27 95 -2 l24 19 3 316 3 316 42 0 c54 0 107 28 132 71 19 33 20 52 20 514 0
461 -1 481 -20 513 -23 39 -87 72 -138 72 l-37 0 0 161 0 160 488 -4 c337 -2
498 -7 522 -15 60 -20 127 -69 164 -119 70 -94 66 -6 66 -1455 l0 -1308 -2400
0 -2400 0 0 1308 c0 1449 -4 1361 66 1455 37 50 104 99 164 119 25 9 225 13
722 16 l688 3 0 -74 0 -75 -53 -4 c-64 -5 -108 -33 -131 -82 -14 -30 -16 -91
-16 -501 0 -410 2 -471 16 -501 23 -49 67 -77 131 -82 l53 -4 0 -338 c0 -186
3 -346 6 -355 10 -26 63 -45 93 -34 50 20 50 20 51 385 l0 342 53 4 c64 5 108
33 131 82 14 30 16 91 16 501 0 410 -2 471 -16 501 -23 49 -67 77 -131 82
l-53 4 0 74 0 74 173 0 c196 0 207 4 207 72 0 63 -14 68 -208 68 l-172 0 0 29
c0 43 -9 60 -41 77 -55 28 -109 -8 -109 -73 l0 -33 -700 0 c-683 0 -702 -1
-763 -21 -156 -52 -270 -174 -312 -336 -13 -49 -15 -245 -15 -1430 0 -985 3
-1387 11 -1425 29 -135 129 -262 253 -323 39 -19 95 -40 125 -45 32 -6 293
-10 642 -10 l589 0 0 -188 0 -188 -122 -142 -122 -142 -59 0 c-70 0 -92 -10
-105 -48 -12 -34 6 -85 33 -96 9 -3 597 -6 1306 -6 l1290 0 24 25 c14 13 25
36 25 50 0 14 -11 37 -25 50 -20 21 -34 25 -82 25 l-59 0 -122 142 -122 142 0
188 0 188 589 0 c349 0 610 4 642 10 180 33 339 189 378 368 8 38 11 440 11
1425 0 1185 -2 1381 -15 1430 -42 162 -156 284 -312 336 -60 20 -83 21 -562
21 l-500 0 -3 171 c-3 166 -4 171 -27 190 -31 26 -73 24 -99 -4z m-1592 -1232
l0 -435 -125 0 -125 0 0 435 0 435 125 0 125 0 0 -435z m1770 -170 l0 -435
-125 0 -125 0 0 435 0 435 125 0 125 0 0 -435z m1175 -2167 c-23 -77 -103
-164 -184 -202 -46 -21 -55 -21 -864 -26 l-819 -5 -20 -25 c-14 -17 -18 -33
-14 -54 11 -56 24 -61 166 -64 l130 -4 0 -164 0 -164 -95 0 c-104 0 -137 -10
-154 -47 -16 -34 -14 -47 10 -77 20 -26 22 -26 152 -27 l132 0 74 -87 74 -87
-486 -3 c-268 -1 -706 -1 -974 0 l-486 3 74 87 74 87 132 0 c130 1 132 1 152
27 24 30 26 43 10 77 -17 37 -50 47 -154 47 l-95 0 0 165 0 165 519 0 c509 0
519 0 545 21 34 27 36 77 3 107 l-23 22 -1209 2 -1210 3 -46 21 c-81 38 -161
125 -184 202 l-6 22 2391 0 2391 0 -6 -22z"/>
<path d="M975 3892 c-45 -9 -55 -31 -55 -114 l0 -78 -45 0 c-52 0 -89 -16
-125 -55 l-25 -27 -3 -238 -3 -238 27 -21 c30 -24 43 -26 77 -10 42 19 47 48
47 249 l0 190 120 0 120 0 0 -435 0 -435 -119 0 -119 0 -4 106 c-3 97 -5 107
-27 125 -32 26 -73 24 -99 -4 -20 -21 -22 -34 -22 -148 0 -105 3 -129 20 -156
27 -45 60 -63 124 -70 l56 -6 0 -213 c0 -201 1 -215 20 -234 22 -22 60 -26 90
-10 33 17 40 66 40 265 l0 192 51 6 c61 7 93 26 119 70 19 31 20 54 20 516 0
467 -1 485 -20 516 -25 40 -74 65 -128 65 l-40 0 -4 74 c-4 95 -32 130 -93
118z"/>
<path d="M4361 3484 c-12 -15 -21 -34 -21 -43 0 -27 30 -62 68 -78 l36 -15
-171 -91 c-93 -51 -178 -98 -187 -106 -23 -19 -21 -76 4 -101 35 -35 69 -25
252 74 95 51 174 93 175 92 1 -1 -5 -22 -14 -48 -16 -43 -16 -47 1 -72 22 -35
58 -48 92 -36 28 11 49 54 104 208 l33 93 -20 27 c-14 20 -54 40 -144 75 -144
55 -179 58 -208 21z"/>
<path d="M2495 2299 c-418 -226 -764 -413 -770 -415 -5 -2 -31 51 -58 119 -38
99 -52 126 -73 135 -14 7 -30 12 -37 12 -26 0 -1073 -454 -1090 -472 -39 -45
-10 -118 48 -118 23 0 203 72 516 206 264 113 484 203 487 199 3 -3 25 -55 48
-116 49 -127 65 -149 107 -149 36 0 1620 849 1655 887 26 29 28 63 5 92 -43
51 -25 60 -838 -380z"/>
</g>
</svg>
